<svg xmlns="http://www.w3.org/2000/svg" width="100" height="100" fill="none" viewBox="0 0 100 100">
  <path fill="#4DAF8C" d="M0 0h100v100H0z"/>
  <g filter="url(#a)">
    <path fill="#87D6A4" d="M25 10h50v80.357H25z"/>
  </g>
  <path fill="#FEFEFE" d="M28.572 81.429h14.286V85H28.572zm0-7.143h14.286v3.571H28.572zm5.356-32.143h32.143V47.5H33.928zM28.572 60h14.286v3.571H28.572z"/>
  <path fill="#4DAF8C" d="M46.428 60h25v3.571h-25zm0 7.143h25v3.571h-25zm0 7.143h25v3.571h-25zm0 7.143h25V85h-25z"/>
  <path fill="#FEFEFE" d="M28.572 67.143h14.286v3.571H28.572z"/>
  <circle cx="50" cy="26.071" r="12.5" fill="#FEFEFE"/>
  <defs>
    <filter id="a" width="50" height="82.357" x="25" y="10" color-interpolation-filters="sRGB" filterUnits="userSpaceOnUse">
      <feFlood flood-opacity="0" result="BackgroundImageFix"/>
      <feColorMatrix in="SourceAlpha" result="hardAlpha" values="0 0 0 0 0 0 0 0 0 0 0 0 0 0 0 0 0 0 127 0"/>
      <feOffset dy="2"/>
      <feComposite in2="hardAlpha" operator="out"/>
      <feColorMatrix values="0 0 0 0 0 0 0 0 0 0 0 0 0 0 0 0 0 0 0.25 0"/>
      <feBlend in2="BackgroundImageFix" result="effect1_dropShadow_41_806"/>
      <feBlend in="SourceGraphic" in2="effect1_dropShadow_41_806" result="shape"/>
    </filter>
  </defs>
</svg>
