<svg xmlns="http://www.w3.org/2000/svg" width="100" height="100" fill="none" viewBox="0 0 100 100">
  <path fill="#4DAF8C" d="M0 0h100v100H0z"/>
  <path stroke="#87D6A4" stroke-width="2" d="M100 66H0m100-20H0m100-8H0"/>
  <g filter="url(#a)">
    <path stroke="#FEFEFE" stroke-width="2" d="M79 37v28"/>
  </g>
  <g filter="url(#b)">
    <path fill="#FEFEFE" d="M46.096 37.08v20.28c0 1.253-.214 2.387-.64 3.4a6.927 6.927 0 0 1-1.84 2.52c-.774.693-1.72 1.24-2.84 1.64-1.094.373-2.32.56-3.68.56-2.64 0-4.72-.667-6.24-2-1.494-1.333-2.454-3.107-2.88-5.32l4.92-1.04c.24 1.173.666 2.147 1.28 2.92.64.747 1.613 1.12 2.92 1.12 1.2 0 2.12-.347 2.76-1.04.64-.72.96-1.84.96-3.36V41.4h-9.44v-4.32h14.72Zm16.384 28.4c-1.653 0-3.12-.253-4.4-.76-1.28-.507-2.36-1.227-3.24-2.16-.853-.933-1.507-2.053-1.96-3.36-.453-1.333-.68-2.827-.68-4.48 0-1.68.227-3.187.68-4.52.48-1.333 1.147-2.467 2-3.4a8.705 8.705 0 0 1 3.08-2.16c1.227-.507 2.6-.76 4.12-.76 1.493 0 2.84.253 4.04.76 1.2.48 2.213 1.173 3.04 2.08.853.907 1.507 2 1.96 3.28.453 1.28.68 2.693.68 4.24v1.68H57.32v.52c0 1.493.467 2.707 1.4 3.64.933.907 2.24 1.36 3.92 1.36 1.28 0 2.373-.253 3.28-.76a7.246 7.246 0 0 0 2.32-2.08l2.92 2.92c-.747 1.093-1.84 2.027-3.28 2.8-1.413.773-3.213 1.16-5.4 1.16Zm-.36-17.84c-1.44 0-2.6.453-3.48 1.36-.88.907-1.32 2.107-1.32 3.6v.28h9.36v-.36c0-1.493-.413-2.68-1.24-3.56-.8-.88-1.907-1.32-3.32-1.32Z"/>
  </g>
  <defs>
    <filter id="a" width="2" height="30" x="78" y="37" color-interpolation-filters="sRGB" filterUnits="userSpaceOnUse">
      <feFlood flood-opacity="0" result="BackgroundImageFix"/>
      <feColorMatrix in="SourceAlpha" result="hardAlpha" values="0 0 0 0 0 0 0 0 0 0 0 0 0 0 0 0 0 0 127 0"/>
      <feOffset dy="2"/>
      <feComposite in2="hardAlpha" operator="out"/>
      <feColorMatrix values="0 0 0 0 0 0 0 0 0 0 0 0 0 0 0 0 0 0 0.25 0"/>
      <feBlend in2="BackgroundImageFix" result="effect1_dropShadow_42_831"/>
      <feBlend in="SourceGraphic" in2="effect1_dropShadow_42_831" result="shape"/>
    </filter>
    <filter id="b" width="43.825" height="30.4" x="27.976" y="37.08" color-interpolation-filters="sRGB" filterUnits="userSpaceOnUse">
      <feFlood flood-opacity="0" result="BackgroundImageFix"/>
      <feColorMatrix in="SourceAlpha" result="hardAlpha" values="0 0 0 0 0 0 0 0 0 0 0 0 0 0 0 0 0 0 127 0"/>
      <feOffset dy="2"/>
      <feComposite in2="hardAlpha" operator="out"/>
      <feColorMatrix values="0 0 0 0 0 0 0 0 0 0 0 0 0 0 0 0 0 0 0.25 0"/>
      <feBlend in2="BackgroundImageFix" result="effect1_dropShadow_42_831"/>
      <feBlend in="SourceGraphic" in2="effect1_dropShadow_42_831" result="shape"/>
    </filter>
  </defs>
</svg>
